<svg xmlns="http://www.w3.org/2000/svg" width="22" height="20" viewBox="0 0 22 20" fill="none">
<path d="M1.52387 19.8388H20.6821C21.0904 19.8388 21.41 19.5133 21.41 19.0975V2.5528C21.41 2.13693 21.0904 1.81146 20.6821 1.81146H17.0777V1.1786C17.0777 0.762724 16.7581 0.437256 16.3497 0.437256C15.9413 0.437256 15.6217 0.762724 15.6217 1.1786V1.81146H6.70848V1.1786C6.70848 0.762724 6.38888 0.437256 5.98051 0.437256C5.57213 0.437256 5.25253 0.762724 5.25253 1.1786V1.81146H1.52387C1.1155 1.81146 0.795898 2.13693 0.795898 2.5528V19.1155C0.795898 19.5133 1.13325 19.8388 1.52387 19.8388ZM2.25185 3.29415H5.25253V3.69194C5.25253 4.10782 5.57213 4.43329 5.98051 4.43329C6.38888 4.43329 6.70848 4.10782 6.70848 3.69194V3.29415H15.6217V3.69194C15.6217 4.10782 15.9413 4.43329 16.3497 4.43329C16.7581 4.43329 17.0777 4.10782 17.0777 3.69194V3.29415H19.9718V5.2108H2.25185V3.29415ZM2.25185 6.69349H19.9541V18.3742H2.25185V6.69349Z" fill="#161310" stroke="#161310" stroke-width="0.3"/>
<path d="M16.3512 10.0923H5.87544C5.46706 10.0923 5.14746 10.4178 5.14746 10.8336C5.14746 11.2495 5.46706 11.575 5.87544 11.575H16.3512C16.7596 11.575 17.0792 11.2495 17.0792 10.8336C17.0792 10.4178 16.7596 10.0923 16.3512 10.0923Z" fill="#161310" stroke="#161310" stroke-width="0.3"/>
<path d="M11.1133 13.6733H5.87544C5.46706 13.6733 5.14746 13.9988 5.14746 14.4147C5.14746 14.8306 5.46706 15.156 5.87544 15.156H11.1133C11.5217 15.156 11.8413 14.8306 11.8413 14.4147C11.8413 13.9988 11.5217 13.6733 11.1133 13.6733Z" fill="#161310" stroke="#161310" stroke-width="0.3"/>
</svg>
