<?xml version="1.0" encoding="utf-8"?><svg viewBox="0 0 311.09 311.09" xmlns="http://www.w3.org/2000/svg" xmlns:xlink="http://www.w3.org/1999/xlink"><style>:root>svg{display:none}:root>svg:target{display:block}</style><svg viewBox="0 0 24 24" id="exit" xmlns="http://www.w3.org/2000/svg"><path fill-rule="evenodd" d="M14 17h2v1a3 3 0 01-3 3H5a3 3 0 01-3-3V6a3 3 0 013-3h8a3 3 0 013 3v1h-2V6a1 1 0 00-1-1H5a1 1 0 00-1 1v12a1 1 0 001 1h8a1 1 0 001-1v-1zm4.047-6.045L16.89 9.784a1.054 1.054 0 010-1.478 1.024 1.024 0 011.46 0L22 12l-3.65 3.694a1.024 1.024 0 01-1.46 0 1.054 1.054 0 010-1.478l1.157-1.171h-7.015c-.57 0-1.032-.468-1.032-1.045s.462-1.045 1.032-1.045h7.015z"/></svg><svg viewBox="0 0 48 48" id="question" xmlns="http://www.w3.org/2000/svg"><path fill-rule="evenodd" clip-rule="evenodd" d="M24.5 29.253a2 2 0 011.562-1.951c1.694-.38 3.55-1.047 5.192-2.096C33.856 23.546 36 20.87 36 16.845c0-3.557-1.356-6.247-3.48-8.06-2.097-1.79-4.872-2.664-7.656-2.773-2.634-.103-5.586.52-8.01 1.906-2.394 1.37-4.2 3.433-4.83 6.25a1 1 0 001.952.437c.943-4.215 5.785-6.792 10.81-6.595 2.443.096 4.755.862 6.437 2.297C32.879 11.721 34 13.844 34 16.845c0 3.175-1.64 5.283-3.821 6.675-2.21 1.41-4.912 2.032-6.749 2.16a1 1 0 00-.93.998V32a1 1 0 102 0v-2.747zm1.04 4.946c.59-.547.96-1.33.96-2.2v-2.746c1.863-.418 3.947-1.159 5.83-2.36 3.023-1.93 5.67-5.175 5.67-10.048 0-4.114-1.59-7.37-4.18-9.58-2.515-2.146-5.754-3.13-8.878-3.252-5.941-.233-13.317 2.778-14.87 9.718a3 3 0 105.856 1.31c.647-2.893 4.271-5.209 8.78-5.032 2.1.082 3.949.738 5.216 1.82C31.116 12.844 32 14.402 32 16.844c0 2.338-1.147 3.872-2.897 4.99-1.858 1.185-4.213 1.738-5.812 1.85a3 3 0 00-2.791 2.993V32a2.996 2.996 0 003 3 2.99 2.99 0 002.04-.8zm.273 2.235a3.983 3.983 0 00-2.313-.403A3.996 3.996 0 0020 40a4 4 0 105.813-3.567zM24 38a2 2 0 100 4 2 2 0 000-4z"/></svg><svg viewBox="0 0 311.094 311.094" id="settings" xmlns="http://www.w3.org/2000/svg"><path d="M174.04 311.076h-39.05a16.646 16.646 0 01-16.463-13.958l-4.588-28.18a124.686 124.686 0 01-6.176-2.453L85.07 283.761c-6.282 4.764-15.828 4.288-21.581-1.165L35.15 255.757c-5.629-5.347-6.811-14.064-2.806-20.716l15.758-26.186a119.951 119.951 0 01-4.941-11.964l-30.068-6.617C5.364 188.562 0 181.857 0 173.969l.018-39.05c.018-8.223 5.911-15.14 13.993-16.446l30.651-4.994a122.52 122.52 0 014.041-9.07l-16.852-27.58c-4.059-6.635-2.929-15.334 2.665-20.716L62.731 29.08c5.664-5.505 15.158-6.105 21.545-1.306l25.657 19.269c1.2-.476 2.4-.935 3.635-1.376l4.976-31.692A16.615 16.615 0 01134.99.017h39.05c7.782 0 14.628 5.505 16.287 13.111l7.147 32.521c1.112.406 2.206.794 3.3 1.235l27.474-18.652c6.335-4.27 15.299-3.564 20.84 1.694l28.357 26.839c5.982 5.664 6.952 14.699 2.312 21.492l-17.54 25.816a117.154 117.154 0 014.235 9.511l30.668 5.011a16.601 16.601 0 0113.975 16.446l-.018 39.05c0 7.782-5.523 14.628-13.111 16.269l-30.068 6.582a113.008 113.008 0 01-4.394 10.782l16.746 24.333a16.632 16.632 0 01-2.188 21.475l-28.18 27.033c-5.523 5.311-14.469 6.07-20.84 1.818l-24.563-16.446a114.526 114.526 0 01-7.799 3.159l-6.335 28.886c-1.677 7.589-8.523 13.094-16.305 13.094zm-36.827-19.269h34.744l7.058-32.133a9.66 9.66 0 016.511-7.129c5.347-1.676 10.464-3.706 15.369-6.211 3.123-1.588 6.864-1.359 9.74.582l27.386 18.334 25.075-24.051-18.704-27.174a9.613 9.613 0 01-.565-9.97c3-5.647 5.488-11.717 7.394-18.052a9.598 9.598 0 017.164-6.635l33.403-7.323.018-34.744-34.039-5.576a9.672 9.672 0 01-7.57-6.423c-2.047-6.035-4.535-11.611-7.623-17.046-1.8-3.194-1.659-7.147.424-10.164l19.569-28.833-25.233-23.892-27.791 18.863c-.3.371-.6.688-.935.971-2.859 2.559-7.023 3.159-10.499 1.518-3.9-1.835-7.994-3.247-12.14-4.553-3.882-1.235-6.564-4.8-6.705-8.876l-7.323-34.003h-34.727l-5.629 34.444-.371-.071c-.865 3.6-3.088 7.499-6.176 8.488-4.288 1.376-8.488 2.841-12.493 4.764-3.564 1.676-7.746 1.076-10.64-1.57a8.238 8.238 0 01-.776-.794L74.465 44.52 49.39 68.554l17.84 29.168c.212.282.441.565.618.865a9.647 9.647 0 01.406 10.058 101.226 101.226 0 00-7.358 16.534 9.62 9.62 0 01-7.588 6.405l-34.021 5.558-.018 34.744 33.403 7.341a9.679 9.679 0 017.164 6.652 98.48 98.48 0 007.746 18.775 9.606 9.606 0 01-.229 9.546l-17.452 28.974 25.216 23.892 25.569-19.446a9.65 9.65 0 0110.146-.953c4.676 2.329 9.529 4.235 14.575 5.823a9.672 9.672 0 016.617 7.623l5.189 31.694zm19.34-77.623c-31.392 0-56.943-25.551-56.943-56.943 0-31.409 25.551-56.96 56.943-56.96 31.409 0 56.96 25.551 56.96 56.96.018 31.392-25.533 56.943-56.96 56.943zm0-94.634c-20.769 0-37.674 16.905-37.674 37.691 0 20.769 16.905 37.674 37.674 37.674 20.787 0 37.691-16.905 37.691-37.674 0-20.787-16.904-37.691-37.691-37.691z"/></svg><svg viewBox="0 0 50 50" id="volunteer" xmlns="http://www.w3.org/2000/svg"><path d="M46.792 24.23a4.054 4.054 0 00-5.689-.14l-7.698 6.84a5.256 5.256 0 01.59 2.43 5.39 5.39 0 01-3.48 5.02l-6.469 2.43a1.007 1.007 0 01-1.28-.59.983.983 0 01.58-1.28l6.47-2.43a3.38 3.38 0 002.179-3.15 3.458 3.458 0 00-3.36-3.36H10a2 2 0 00-2-2H4a2 2 0 00-2 2v16a2 2 0 002 2h3.999a2 2 0 002-2h4.049l1.25.51a19.613 19.613 0 0022.626-5.64l9.108-11.01a4.202 4.202 0 00-.24-5.63zM12.998 44h-3V32h3zm17.42-42a8.591 8.591 0 00-5.422 1.908A8.591 8.591 0 0019.574 2a8.688 8.688 0 00-8.666 8.69c0 9.142 13.03 16.85 13.584 17.174a1.003 1.003 0 001.008 0c.555-.324 13.585-8.032 13.585-17.175A8.688 8.688 0 0030.418 2zm-1.772 18.657a.983.983 0 01-.65.223.996.996 0 01-.65-1.742c3.7-3.171 5.74-6.172 5.74-8.449A2.682 2.682 0 0030.418 8a1 1 0 010-2 4.683 4.683 0 014.667 4.69c0 3.678-3.501 7.45-6.439 9.967z"/></svg></svg>